<?xml version="1.0" encoding="UTF-8" standalone="no"?>
<!-- Generator: Adobe Illustrator 17.0.1, SVG Export Plug-In . SVG Version: 6.00 Build 0)  -->

<svg
   xmlns:dc="http://purl.org/dc/elements/1.1/"
   xmlns:cc="http://creativecommons.org/ns#"
   xmlns:rdf="http://www.w3.org/1999/02/22-rdf-syntax-ns#"
   xmlns:svg="http://www.w3.org/2000/svg"
   xmlns="http://www.w3.org/2000/svg"
   xmlns:xlink="http://www.w3.org/1999/xlink"
   xmlns:sodipodi="http://sodipodi.sourceforge.net/DTD/sodipodi-0.dtd"
   xmlns:inkscape="http://www.inkscape.org/namespaces/inkscape"
   version="1.1"
   x="0px"
   y="0px"
   width="86"
   height="86"
   viewBox="0 0 86 86"
   enable-background="new 0 0 86 86"
   xml:space="preserve"
   id="svg2"
   inkscape:version="0.91 r13725"
   sodipodi:docname="GpsInfo.svg"><metadata
     id="metadata23"><rdf:RDF><cc:Work
         rdf:about=""><dc:format>image/svg+xml</dc:format><dc:type
           rdf:resource="http://purl.org/dc/dcmitype/StillImage" /><dc:title /></cc:Work></rdf:RDF></metadata><defs
     id="defs21"><linearGradient
       inkscape:collect="always"
       xlink:href="#SVGID_1_"
       id="linearGradient4153"
       x1="0"
       y1="86"
       x2="86"
       y2="0"
       gradientUnits="userSpaceOnUse" /></defs><sodipodi:namedview
     pagecolor="#ffffff"
     bordercolor="#666666"
     borderopacity="1"
     objecttolerance="10"
     gridtolerance="10"
     guidetolerance="10"
     inkscape:pageopacity="0"
     inkscape:pageshadow="2"
     inkscape:window-width="1600"
     inkscape:window-height="838"
     id="namedview19"
     showgrid="true"
     inkscape:zoom="4.160642"
     inkscape:cx="-18.230531"
     inkscape:cy="35.849194"
     inkscape:window-x="-8"
     inkscape:window-y="-8"
     inkscape:window-maximized="1"
     inkscape:current-layer="Layer_2"
     inkscape:snap-grids="true"
     showguides="false"
     inkscape:snap-to-guides="true"><inkscape:grid
       type="xygrid"
       id="grid4152" /></sodipodi:namedview><g
     id="Layer_1"
     transform="translate(-1e-7,-2e-5)"><linearGradient
       id="SVGID_1_"
       gradientUnits="userSpaceOnUse"
       x1="0.71710002"
       y1="85.283302"
       x2="73.193901"
       y2="12.8066"><stop
         offset="0"
         style="stop-color:#0096d4;stop-opacity:1"
         id="stop7" /><stop
         offset="1"
         style="stop-color:#1bdcf1;stop-opacity:1"
         id="stop11" /></linearGradient><path
       d="M 43,0.3 C 19.418,0.3 0.3,19.418 0.3,43 l 0,41.277 c 0,0.786 0.637,1.423 1.423,1.423 L 43,85.7 C 66.585,85.7 85.7,66.582 85.7,43 85.7,19.418 66.585,0.3 43,0.3 Z"
       id="path13"
       style="fill:url(#linearGradient4153);fill-opacity:1"
       inkscape:connector-curvature="0" /></g><g
     inkscape:groupmode="layer"
     id="Layer_2"
     inkscape:label="Layer 2"><g
       id="g4315"
       transform="matrix(0.7,0.7,-0.7,0.7,43.130535,-16.869465)"
       style="fill:#9eb0c8;fill-opacity:1"><path
         sodipodi:nodetypes="sssssssss"
         inkscape:connector-curvature="0"
         id="rect4265-5-3"
         d="m 34.274464,51.304549 c 5.716806,4.362406 11.419038,5.14837 17.135549,0 0.307636,-0.277063 0.673517,0.394154 0.673517,0.883755 l 0,3.621797 c 0,0.4896 -0.330911,0.689813 -0.673517,0.883755 -5.711849,3.233344 -11.423701,3.116591 -17.135549,0 -0.344529,-0.187987 -0.673518,-0.394155 -0.673518,-0.883755 l 0,-3.621797 c 0,-0.489601 0.350966,-1.12989 0.673518,-0.883755 z"
         style="opacity:1;fill:#9eb0c8;fill-opacity:1;stroke:none" /><path
         sodipodi:nodetypes="sssssssss"
         inkscape:connector-curvature="0"
         id="rect4265-5"
         d="m 29.763616,56.981949 c 8.591515,6.231845 17.161127,7.35462 25.752199,0 0.462332,-0.395793 1.012198,0.563063 1.012198,1.262473 l 0,5.173861 c 0,0.699409 -0.497312,0.985421 -1.012198,1.262474 -8.584068,4.618941 -17.168134,4.452156 -25.752199,0 -0.517775,-0.268546 -1.012198,-0.563065 -1.012198,-1.262474 l 0,-5.173861 c 0,-0.69941 0.527451,-1.614083 1.012198,-1.262473 z"
         style="opacity:1;fill:#9eb0c8;fill-opacity:1;stroke:none" /><path
         sodipodi:nodetypes="sssssssss"
         inkscape:connector-curvature="0"
         id="rect4265"
         d="m 22.128796,65.088796 c 13.918848,8.09456 27.802213,9.552936 41.720342,0 0.749009,-0.514095 1.63983,0.731365 1.63983,1.639831 l 0,6.720339 c 0,0.908466 -0.805679,1.279967 -1.63983,1.63983 -13.906781,5.999557 -27.813561,5.78292 -41.720342,0 -0.838831,-0.348815 -1.639829,-0.731364 -1.639829,-1.63983 l 0,-6.720339 c 0,-0.908466 0.854508,-2.096538 1.639829,-1.639831 z"
         style="opacity:1;fill:#9eb0c8;fill-opacity:1;stroke:none" /><rect
         ry="1.4183111"
         y="20.79826"
         x="11.110523"
         height="24.559322"
         width="17.305086"
         id="rect4156-4-0"
         style="opacity:1;fill:#9eb0c8;fill-opacity:1;stroke:none" /><rect
         ry="2.0706952"
         y="13.79843"
         x="29.760418"
         height="35.85593"
         width="26.415257"
         id="rect4156"
         style="opacity:1;fill:#9eb0c8;fill-opacity:1;stroke:none" /><rect
         ry="1.4183111"
         y="20.806065"
         x="57.403919"
         height="24.559322"
         width="17.305086"
         id="rect4156-4"
         style="opacity:1;fill:#9eb0c8;fill-opacity:1;stroke:none" /></g></g></svg>